<?xml version="1.0" standalone="no"?>
<!DOCTYPE svg PUBLIC "-//W3C//DTD SVG 20010904//EN"
 "http://www.w3.org/TR/2001/REC-SVG-20010904/DTD/svg10.dtd">
<svg version="1.0" xmlns="http://www.w3.org/2000/svg"
 width="537.000000pt" height="465.000000pt" viewBox="0 0 537.000000 465.000000"
 preserveAspectRatio="xMidYMid meet">
<metadata>
Created by potrace 1.16, written by Peter Selinger 2001-2019
</metadata>
<g transform="translate(0.000000,465.000000) scale(0.100000,-0.100000)"
fill="#000000" stroke="none">
<path d="M2563 3903 c-4 -10 -24 -45 -45 -79 -21 -34 -38 -64 -38 -67 0 -3
-33 -61 -74 -129 -74 -125 -115 -195 -216 -373 -31 -55 -84 -147 -118 -206
-118 -204 -111 -272 58 -554 26 -44 74 -125 105 -180 32 -55 64 -110 72 -123
19 -32 89 -80 132 -92 59 -15 344 -17 349 -2 2 7 -12 39 -31 70 -19 31 -52 88
-72 126 -21 39 -48 84 -59 102 -12 17 -40 66 -64 108 -23 42 -47 74 -52 71 -5
-3 -12 0 -16 6 -4 8 -3 9 4 5 21 -13 13 4 -53 124 l-66 117 54 89 c71 117 109
183 126 217 20 40 15 47 191 -263 24 -41 53 -91 65 -110 13 -19 43 -71 67
-115 25 -44 69 -120 98 -170 29 -49 63 -108 75 -130 79 -149 124 -205 191
-235 33 -15 72 -20 208 -23 120 -3 169 -1 172 7 2 6 -45 97 -105 201 -60 105
-137 240 -172 300 -65 115 -136 238 -197 340 -20 33 -52 89 -72 125 -21 36
-79 137 -130 225 -52 88 -117 201 -145 252 -28 51 -56 98 -62 105 -11 13 -95
163 -136 241 -21 41 -34 46 -44 20z m76 -105 c30 -51 68 -118 86 -148 18 -30
42 -71 52 -90 38 -68 135 -236 170 -292 20 -33 31 -63 27 -70 -4 -7 -4 -10 1
-6 11 10 76 -101 68 -116 -3 -6 -2 -8 2 -3 5 4 21 -16 37 -45 32 -59 37 -77 9
-35 -11 18 -21 25 -25 18 -4 -6 -5 -15 -1 -20 3 -5 1 -12 -4 -15 -15 -9 -25
14 -12 27 6 6 11 16 11 22 0 5 -6 2 -14 -7 -7 -10 -26 -22 -41 -28 -24 -9 -27
-13 -15 -21 11 -8 10 -9 -7 -4 -13 3 -23 2 -23 -3 0 -5 -18 -14 -40 -21 -28
-8 -40 -17 -40 -30 0 -14 -5 -18 -19 -14 -20 5 -36 -21 -25 -40 5 -8 2 -7 -7
1 -20 19 -29 14 -29 -15 0 -22 -14 -4 -65 82 -35 61 -80 137 -101 170 -20 33
-36 65 -36 70 0 6 -7 18 -15 28 -9 9 -13 17 -10 17 4 0 -1 9 -11 20 -20 24
-119 192 -157 266 l-26 52 21 44 c11 25 30 55 41 67 11 11 17 21 14 21 -4 0 3
13 14 29 12 16 24 37 29 47 14 35 74 134 81 134 4 0 31 -42 60 -92z m-463
-645 c4 -10 8 -21 9 -25 2 -5 4 -11 5 -15 1 -5 2 -12 1 -16 -1 -5 2 -6 7 -4 7
5 88 -128 218 -360 34 -62 58 -113 53 -113 -6 0 -16 13 -23 30 -9 23 -15 27
-24 18 -7 -7 -12 -20 -12 -30 0 -10 -4 -18 -10 -18 -5 0 -7 8 -4 18 2 9 -1 7
-7 -5 -7 -13 -18 -23 -26 -23 -8 0 -23 -9 -34 -19 -12 -11 -41 -25 -65 -32
-40 -12 -50 -23 -45 -51 0 -5 -4 -8 -10 -8 -5 0 -8 -4 -4 -9 3 -5 1 -12 -4
-15 -5 -4 -13 -1 -17 5 -5 8 -3 9 6 4 9 -5 11 -4 6 4 -13 20 -27 1 -16 -20 6
-11 15 -17 20 -14 6 3 7 -1 4 -9 -3 -9 -10 -16 -16 -16 -5 0 -7 4 -4 9 4 5 2
11 -2 13 -10 4 -82 109 -82 120 0 4 -18 36 -40 71 -72 115 -74 231 -5 353 22
38 46 81 54 96 7 15 17 26 21 23 4 -3 7 3 6 13 0 9 4 16 11 15 7 -2 10 4 7 12
-9 21 12 19 22 -2z"/>
<path d="M1734 2462 c-6 -4 -22 -27 -34 -52 -13 -25 -46 -85 -75 -135 -29 -49
-109 -189 -179 -310 -70 -121 -151 -260 -180 -310 -48 -82 -99 -170 -206 -355
-20 -36 -60 -103 -87 -150 -27 -47 -67 -116 -89 -153 -21 -37 -56 -98 -78
-135 -74 -128 -118 -213 -113 -219 8 -8 1078 -10 1112 -2 17 4 -36 7 -123 8
l-153 1 35 54 c19 30 43 72 54 93 11 21 41 75 68 120 27 45 71 119 98 165 27
46 61 103 77 128 15 25 41 70 58 100 17 30 35 54 41 52 6 -1 9 2 5 8 -10 16 6
34 17 19 7 -10 8 -8 3 8 -3 12 -1 25 6 29 8 5 10 3 4 -7 -6 -11 -5 -12 6 -1
19 18 37 15 44 -7 4 -12 13 -18 25 -16 10 2 26 -6 36 -17 10 -11 34 -26 52
-34 43 -17 93 -59 84 -69 -4 -5 -1 -5 6 -1 7 4 10 12 7 17 -10 15 7 10 27 -7
17 -16 17 -18 0 -30 -11 -9 -13 -13 -4 -14 7 0 10 -5 7 -10 -4 -6 -11 -7 -17
-4 -6 4 -8 2 -5 -3 6 -9 -84 -180 -148 -283 -12 -19 -24 -43 -28 -52 -3 -10
-27 -48 -52 -86 -46 -70 -96 -112 -164 -137 -21 -8 -28 -14 -17 -14 22 -1 99
41 135 73 22 20 111 148 111 160 0 3 22 43 48 88 27 46 74 127 106 180 108
186 112 247 25 395 -21 38 -54 96 -71 131 -18 34 -38 62 -44 62 -11 0 -47 -58
-174 -280 -20 -36 -61 -105 -90 -155 -29 -49 -77 -133 -105 -185 l-53 -95
-196 -3 c-108 -1 -196 1 -196 4 0 11 73 141 205 364 18 30 46 80 63 110 17 30
61 107 98 170 37 63 79 138 94 165 15 28 46 82 69 121 37 64 41 78 41 138 0
45 -6 79 -18 104 -19 38 -153 272 -155 272 -1 0 -7 -4 -13 -8z m-312 -677 c3
4 9 1 14 -6 4 -8 3 -10 -4 -5 -16 10 -15 -12 1 -28 6 -7 32 -23 57 -37 25 -13
48 -28 51 -33 4 -5 12 -5 19 -1 6 4 17 -1 24 -10 11 -15 13 -15 25 -1 8 9 18
16 24 16 5 0 3 -8 -5 -17 -17 -20 -31 -66 -17 -57 5 3 9 -1 9 -8 1 -7 12 1 25
17 53 64 20 -2 -145 -290 -34 -60 -77 -136 -94 -167 -17 -31 -80 -142 -141
-247 -60 -105 -119 -206 -130 -226 l-20 -35 -208 0 -208 0 25 43 c13 23 48 85
78 137 30 52 90 155 133 229 42 74 86 151 97 170 11 20 36 63 56 96 19 33 54
92 77 130 23 39 68 115 100 170 33 55 63 102 67 103 5 2 6 8 2 13 -3 5 0 9 6
9 6 0 8 5 5 10 -3 6 1 10 10 10 10 0 13 5 9 12 -4 7 -3 8 4 4 7 -4 12 -15 13
-24 0 -14 2 -13 9 3 12 28 12 37 0 30 -11 -7 -14 8 -3 19 4 3 12 -3 18 -14 6
-11 14 -18 17 -15z"/>
<path d="M2570 1740 c0 -24 143 -253 185 -296 79 -81 95 -84 517 -84 l353 0
38 -68 c20 -37 62 -110 92 -162 30 -52 54 -98 55 -102 0 -5 -255 -8 -567 -8
-357 0 -582 -4 -605 -10 -55 -16 -121 -84 -179 -185 -28 -49 -62 -109 -76
-133 -18 -32 -21 -44 -11 -47 7 -3 482 -4 1056 -3 l1043 3 -26 50 c-14 28 -34
61 -46 75 l-20 25 12 -25 c7 -14 20 -36 30 -50 9 -14 20 -35 24 -47 l6 -23
-738 1 c-406 1 -731 3 -722 6 11 2 15 11 12 23 -3 10 1 28 8 41 9 17 9 24 0
27 -13 4 -15 42 -3 42 5 0 9 18 10 40 1 22 -3 40 -8 40 -6 0 -10 12 -10 26 0
14 -5 34 -10 45 -9 15 -7 23 6 36 15 16 15 17 -2 24 -11 4 268 7 620 6 l639
-2 39 -65 c22 -36 49 -82 60 -103 11 -22 22 -37 24 -34 3 2 -21 49 -52 103
-136 234 -234 405 -263 455 -14 25 -51 90 -81 144 -72 128 -127 186 -205 215
-59 22 -69 22 -632 25 -315 1 -573 -1 -573 -5z m1205 -32 c62 -23 138 -97 170
-165 10 -21 36 -67 57 -102 22 -35 37 -65 35 -67 -2 -3 -251 -1 -553 3 -418 5
-540 9 -512 18 36 10 37 11 17 23 -11 7 -17 18 -13 24 4 6 5 47 4 92 -2 44 -4
104 -3 131 0 45 -3 51 -26 56 -14 4 152 7 371 8 383 1 398 0 453 -21z"/>
</g>
</svg>
